<svg id="Layer_1" data-name="Layer 1" xmlns="http://www.w3.org/2000/svg" viewBox="0 0 292 78" aria-label="Gradle">
    <defs>
        <style>.cls-1{fill:currentColor;}</style>
    </defs>
    <desc>gradle-white-secondary</desc>
    <path class="cls-1"
          d="M154.59,56.32V70.27A18.37,18.37,0,0,1,149,73.1a22.1,22.1,0,0,1-6.35.89A21.14,21.14,0,0,1,135,72.68,17,17,0,0,1,129.15,69a16,16,0,0,1-3.73-5.58,18.59,18.59,0,0,1-1.32-7.08,19.58,19.58,0,0,1,1.27-7.14A15.68,15.68,0,0,1,134.6,40,20.37,20.37,0,0,1,142,38.74a22,22,0,0,1,3.92.33,20.43,20.43,0,0,1,3.39.92,14.58,14.58,0,0,1,2.85,1.42,16.71,16.71,0,0,1,2.36,1.84l-1.83,2.91a1.75,1.75,0,0,1-1.12.84,2,2,0,0,1-1.51-.34l-1.57-.91a11.28,11.28,0,0,0-1.75-.79,14.64,14.64,0,0,0-2.17-.54,15.36,15.36,0,0,0-2.78-.22,12,12,0,0,0-4.62.86,9.74,9.74,0,0,0-3.52,2.46,11.05,11.05,0,0,0-2.24,3.84,15.13,15.13,0,0,0-.79,5,15.47,15.47,0,0,0,.85,5.28,11,11,0,0,0,2.39,3.93A10,10,0,0,0,137.6,68a14.31,14.31,0,0,0,8.26.44,16.7,16.7,0,0,0,2.93-1.09V61.14h-4.34a1.32,1.32,0,0,1-1-.35,1.15,1.15,0,0,1-.34-.85V56.32Zm10.47-2.94a10.46,10.46,0,0,1,2.72-3.44,5.77,5.77,0,0,1,3.72-1.25,4.58,4.58,0,0,1,2.72.73l-.38,4.42a1.19,1.19,0,0,1-.35.61.94.94,0,0,1-.61.17,8,8,0,0,1-1.06-.11,8.19,8.19,0,0,0-1.37-.12,5,5,0,0,0-1.74.28,4.26,4.26,0,0,0-1.37.83,5.34,5.34,0,0,0-1.08,1.3,11.75,11.75,0,0,0-.87,1.74V73.61H159.5V49.14H163a1.43,1.43,0,0,1,1.74,1.48Zm11.35-.83a14.51,14.51,0,0,1,10.16-3.86,9.92,9.92,0,0,1,3.84.7,8.21,8.21,0,0,1,2.87,2,8.49,8.49,0,0,1,1.77,3,11.36,11.36,0,0,1,.61,3.81V73.61H193a2.66,2.66,0,0,1-1.29-.25,1.72,1.72,0,0,1-.71-1l-.53-1.77a20.18,20.18,0,0,1-1.81,1.47,11,11,0,0,1-1.84,1.06,10,10,0,0,1-2,.66,11.78,11.78,0,0,1-2.39.22,9.71,9.71,0,0,1-2.87-.41,6.24,6.24,0,0,1-2.26-1.26,5.49,5.49,0,0,1-1.48-2.07,7.38,7.38,0,0,1-.53-2.89,6,6,0,0,1,.31-1.85,5.52,5.52,0,0,1,1-1.75,8.19,8.19,0,0,1,1.82-1.57,11.43,11.43,0,0,1,2.76-1.29A23.15,23.15,0,0,1,185,60a36.92,36.92,0,0,1,5-.41V58.15a5.33,5.33,0,0,0-1-3.63,3.83,3.83,0,0,0-3-1.18,7.28,7.28,0,0,0-2.37.33,9.5,9.5,0,0,0-1.66.75l-1.3.75a2.5,2.5,0,0,1-1.3.34,1.69,1.69,0,0,1-1-.33,2.73,2.73,0,0,1-.69-.75Zm13.5,10.61a33.37,33.37,0,0,0-4.29.44,11.39,11.39,0,0,0-2.79.83,3.57,3.57,0,0,0-1.5,1.17,2.47,2.47,0,0,0-.46,1.45,2.57,2.57,0,0,0,.92,2.22,4,4,0,0,0,2.4.67,7,7,0,0,0,3.14-.66,9.34,9.34,0,0,0,2.58-2Zm32.54-25V73.61h-3.61a1.38,1.38,0,0,1-1.47-1.07l-.5-2.36a12.4,12.4,0,0,1-3.4,2.74A9.18,9.18,0,0,1,209,74a8,8,0,0,1-6.54-3.26,11.24,11.24,0,0,1-1.86-3.92,19.71,19.71,0,0,1-.66-5.34,16.77,16.77,0,0,1,.74-5.06,12.35,12.35,0,0,1,2.12-4.06,10,10,0,0,1,3.32-2.68,9.61,9.61,0,0,1,4.34-1,8.63,8.63,0,0,1,3.51.64,8.93,8.93,0,0,1,2.59,1.74V38.17Zm-5.9,17.22a5.69,5.69,0,0,0-2.18-1.72,6.47,6.47,0,0,0-2.54-.5,5.71,5.71,0,0,0-2.41.5,4.89,4.89,0,0,0-1.83,1.51,7.33,7.33,0,0,0-1.17,2.58,14.79,14.79,0,0,0-.41,3.69,16.28,16.28,0,0,0,.35,3.63,7.14,7.14,0,0,0,1,2.44,3.77,3.77,0,0,0,1.57,1.36,5.15,5.15,0,0,0,2.08.41,6,6,0,0,0,3.12-.76,9.19,9.19,0,0,0,2.43-2.17Zm17.68-17.22V73.61h-5.89V38.17Zm10.42,23.94a11.72,11.72,0,0,0,.67,3.26,6.79,6.79,0,0,0,1.38,2.27,5.55,5.55,0,0,0,2,1.33,7.31,7.31,0,0,0,2.62.44,8.14,8.14,0,0,0,2.46-.33,11.26,11.26,0,0,0,1.82-.74L257,67.6a2.28,2.28,0,0,1,1.13-.33,1.23,1.23,0,0,1,1.1.54L260.92,70a9.69,9.69,0,0,1-2.19,1.92,12.42,12.42,0,0,1-2.54,1.24,14.37,14.37,0,0,1-2.7.66,18.82,18.82,0,0,1-2.66.19,13,13,0,0,1-4.75-.85,10.61,10.61,0,0,1-3.81-2.5,11.75,11.75,0,0,1-2.55-4.11,15.83,15.83,0,0,1-.94-5.66,13.56,13.56,0,0,1,.82-4.71,11.32,11.32,0,0,1,2.32-3.84,11,11,0,0,1,3.7-2.59,12.1,12.1,0,0,1,4.92-1,11.79,11.79,0,0,1,4.27.74,9.32,9.32,0,0,1,3.37,2.15,10,10,0,0,1,2.2,3.49,12.78,12.78,0,0,1,.8,4.71,3.85,3.85,0,0,1-.28,1.8,1.19,1.19,0,0,1-1.1.46Zm11.24-3.55a7.28,7.28,0,0,0-.32-2.16,5.3,5.3,0,0,0-1-1.78,4.53,4.53,0,0,0-1.63-1.2,5.7,5.7,0,0,0-2.31-.44,5.46,5.46,0,0,0-4,1.45,7.2,7.2,0,0,0-1.87,4.13Zm-165.5,15H84.76a2.54,2.54,0,0,1-2.52-2.22,7.29,7.29,0,0,0-14.46,0,2.54,2.54,0,0,1-2.52,2.22h-5.7A2.55,2.55,0,0,1,57,71.39a7.28,7.28,0,0,0-14.45,0,2.56,2.56,0,0,1-2.53,2.22H34.2a2.55,2.55,0,0,1-2.5-2.07A43.83,43.83,0,0,1,33.17,48.4a32.62,32.62,0,0,1,11.7-15.55L46.06,32a5.6,5.6,0,0,1,2.79-7.14c19.1-9.1,32-2.53,41.39,2.26,7,3.58,10.87,5.29,14.39,1.76a6.27,6.27,0,0,0-8.18-9.45,2.56,2.56,0,0,1-3.33-.23l-1.66-1.66a2.56,2.56,0,0,1,.06-3.66,14.47,14.47,0,0,1,20.12.34,17.41,17.41,0,0,1,4.84,13.43c-.55,7.75-5.83,15.42-15.68,22.79-2.29,1.72-7.64,7.16-7.86,20.64A2.56,2.56,0,0,1,90.39,73.61ZM34.24,71.06Zm50.55,0h5.57c.08-4.89,1.13-16.81,8.9-22.62,9.09-6.81,14.16-14,14.65-20.91a14.78,14.78,0,0,0-4.1-11.43,11.89,11.89,0,0,0-16.5-.3l1.61,1.61a8.85,8.85,0,0,1,11.53,13.36c-5,5-10.74,2.09-17.38-1.29-4.63-2.36-9.88-5-16.27-6.08-7.4-1.2-14.87.05-22.84,3.85a3,3,0,0,0-1.32,4.22l.2.35v0l5.23,9A3,3,0,0,0,58.16,42l.13-.07.17-.08,2.11-1.18A54.61,54.61,0,0,0,68,35.13a1.28,1.28,0,0,1,1.82.08A1.29,1.29,0,0,1,69.69,37a55.23,55.23,0,0,1-7.8,5.81l0,0-2.41,1.35-.18.08a5.62,5.62,0,0,1-7.41-2.16L47.31,34.3l-1,.67A30,30,0,0,0,35.6,49.29,41.26,41.26,0,0,0,34.23,71H40a9.87,9.87,0,0,1,19.57,0h5.64a9.86,9.86,0,0,1,19.56,0Zm4.36-32-4-2h0a2.53,2.53,0,1,1,4,2Z"/>
</svg>
