<svg version="1.0" xmlns="http://www.w3.org/2000/svg" width="200px" height="200px" viewBox="0 0 200 200" preserveAspectRatio="xMidYMid meet">
 <title>Requiem icon</title>
 <defs>
  <!--filter based on https://stackoverflow.com/a/54115910-->
  <filter id="glow" filterUnits="userSpaceOnUse"
          x="-50%" y="-50%" width="200%" height="200%">
   <!-- blur the text at different levels-->
   <feGaussianBlur in="SourceGraphic" stdDeviation="3" result="blur5"/>
   <feGaussianBlur in="SourceGraphic" stdDeviation="5" result="blur10"/>
   <!-- merge all the blurs except for the first one -->
   <feMerge result="blur-merged">
    <feMergeNode in="blur10"/>
   </feMerge>
   <!-- recolour the merged blurs red-->
   <feColorMatrix result="tinted-blur" in="blur-merged" type="matrix"
                  values="0.44   0    0   0   0
                             0   0.06 0   0   0
                             0   0    1   0   0
                             0   0    0   1   0" />
   <feMerge>
    <feMergeNode in="tinted-blur"/>       <!-- largest blurs coloured red -->
    <feMergeNode in="blur5"/>          <!-- smallest blur left white -->
    <feMergeNode in="SourceGraphic"/>  <!-- original white text -->
   </feMerge>
  </filter>
 </defs>
 <g fill-rule="evenodd">
  <path d="M79.9 150.4 C78.4 146 76.9 143.3 75.3 142.2 C73.9 141.3 67.7 139.6 61.6 138.3 C55.5 137 48.6 135.3 46.4 134.5 C40 132 33.9 125.3 34 120.5 C34 119.4 34.6 119.4 37.7 120.5 C41.8 122 46.2 122.3 49.7 121.3 C53.4 120.3 52.3 119.4 44.7 117.1 C40.7 116 35.4 113.7 32.9 112.1 C24.8 106.7 17.3 94.2 18.1 87.5 C18.5 85 18.5 85 23 87.9 C27.8 91.1 36.2 94.4 38.1 93.7 C38.8 93.5 37.3 92.1 34.8 90.7 C21.8 83.1 9 62 9 48.3 C9 42.7 9 42.7 15.1 49.3 C23.6 58.6 30.9 64 45.9 71.9 C61.3 80.1 66.9 83.7 73.2 89.8 C77.9 94.3 77.9 94.3 72.7 97.7 C66.4 101.8 60.5 107.3 57.8 111.7 C55.8 114.9 55.8 114.9 57.8 117.7 C63.8 126.2 81 138 87.3 138 C88.9 138 89.1 138.5 88.6 141.5 C88.2 143.4 86.6 147.7 85 151 C82 157 82 157 79.9 150.4 "/>
  <path d="M114.5 151.2 C113.2 148 111.8 143.8 111.4 141.7 C110.8 138.4 111 138 112.6 138 C118.9 138 136.1 126.2 142.1 117.7 C144.1 114.9 144.1 114.9 142.1 111.7 C139.4 107.3 133.5 101.8 127.2 97.7 C122 94.3 122 94.3 126.7 89.8 C133 83.7 138.6 80.1 154 71.9 C169 64 176.3 58.6 184.8 49.3 C191 42.7 191 42.7 191 48.3 C191 62 178.1 83.1 165.1 90.7 C162.6 92.1 161.1 93.5 161.8 93.7 C163.7 94.4 172.1 91.1 177 87.9 C181.5 85 181.5 85 181.8 87.5 C182.6 94.2 175.1 106.7 167 112.1 C164.5 113.7 159.2 116 155.2 117.1 C147.6 119.4 146.5 120.3 150.2 121.3 C153.7 122.3 158.1 122 162.2 120.5 C165.3 119.4 166 119.4 166 120.5 C166 125.3 159.9 132 153.5 134.5 C151.3 135.3 144.4 137 138.3 138.3 C132.2 139.6 126 141.3 124.6 142.2 C123 143.3 121.5 146 120 150.4 C118.9 154 117.7 157 117.5 157 C117.2 157 115.9 154.4 114.5 151.2 "/>
  <path d="M92.1 133 C82 131 69.8 123.8 65 117 C62.8 113.9 62.8 113.9 68.4 108.5 C78.6 98.5 93 93.8 106.7 96 C115.9 97.5 124.9 102 131.5 108.5 C137.1 113.9 137.1 113.9 134.9 117 C129.8 124.2 117.7 131.1 106.9 132.9 C99.5 134.2 98.2 134.2 92.1 133 M87 126.9 C81.7 124.7 72 116.6 72 114.5 C72 112.1 81.9 104.1 87.5 102 C94.9 99.3 105 99.3 112.4 102 C118 104.1 128 112.1 128 114.5 C128 116.8 118 124.8 112.4 126.9 C105 129.7 93.7 129.7 87 126.9 M95 120 C92.1 117 91.7 114.4 93.4 111 C96.2 105.7 103.7 105.7 106.5 111 C109.1 116.1 105.6 122 100 122 C98.3 122 96.1 121.1 95 120 "/>
  <path class="hovered-alt" opacity="0" filter="url(#glow)" d="M79.9 150.4 C78.4 146 76.9 143.3 75.3 142.2 C73.9 141.3 67.7 139.6 61.6 138.3 C55.5 137 48.6 135.3 46.4 134.5 C40 132 33.9 125.3 34 120.5 C34 119.4 34.6 119.4 37.7 120.5 C41.8 122 46.2 122.3 49.7 121.3 C53.4 120.3 52.3 119.4 44.7 117.1 C40.7 116 35.4 113.7 32.9 112.1 C24.8 106.7 17.3 94.2 18.1 87.5 C18.5 85 18.5 85 23 87.9 C27.8 91.1 36.2 94.4 38.1 93.7 C38.8 93.5 37.3 92.1 34.8 90.7 C21.8 83.1 9 62 9 48.3 C9 42.7 9 42.7 15.1 49.3 C23.6 58.6 30.9 64 45.9 71.9 C61.3 80.1 66.9 83.7 73.2 89.8 C77.9 94.3 77.9 94.3 72.7 97.7 C66.4 101.8 60.5 107.3 57.8 111.7 C55.8 114.9 55.8 114.9 57.8 117.7 C63.8 126.2 81 138 87.3 138 C88.9 138 89.1 138.5 88.6 141.5 C88.2 143.4 86.6 147.7 85 151 C82 157 82 157 79.9 150.4 "/>
  <path class="hovered-alt" opacity="0" filter="url(#glow)" d="M114.5 151.2 C113.2 148 111.8 143.8 111.4 141.7 C110.8 138.4 111 138 112.6 138 C118.9 138 136.1 126.2 142.1 117.7 C144.1 114.9 144.1 114.9 142.1 111.7 C139.4 107.3 133.5 101.8 127.2 97.7 C122 94.3 122 94.3 126.7 89.8 C133 83.7 138.6 80.1 154 71.9 C169 64 176.3 58.6 184.8 49.3 C191 42.7 191 42.7 191 48.3 C191 62 178.1 83.1 165.1 90.7 C162.6 92.1 161.1 93.5 161.8 93.7 C163.7 94.4 172.1 91.1 177 87.9 C181.5 85 181.5 85 181.8 87.5 C182.6 94.2 175.1 106.7 167 112.1 C164.5 113.7 159.2 116 155.2 117.1 C147.6 119.4 146.5 120.3 150.2 121.3 C153.7 122.3 158.1 122 162.2 120.5 C165.3 119.4 166 119.4 166 120.5 C166 125.3 159.9 132 153.5 134.5 C151.3 135.3 144.4 137 138.3 138.3 C132.2 139.6 126 141.3 124.6 142.2 C123 143.3 121.5 146 120 150.4 C118.9 154 117.7 157 117.5 157 C117.2 157 115.9 154.4 114.5 151.2 "/>
  <path class="hovered-alt" opacity="0" filter="url(#glow)" d="M92.1 133 C82 131 69.8 123.8 65 117 C62.8 113.9 62.8 113.9 68.4 108.5 C78.6 98.5 93 93.8 106.7 96 C115.9 97.5 124.9 102 131.5 108.5 C137.1 113.9 137.1 113.9 134.9 117 C129.8 124.2 117.7 131.1 106.9 132.9 C99.5 134.2 98.2 134.2 92.1 133 M87 126.9 C81.7 124.7 72 116.6 72 114.5 C72 112.1 81.9 104.1 87.5 102 C94.9 99.3 105 99.3 112.4 102 C118 104.1 128 112.1 128 114.5 C128 116.8 118 124.8 112.4 126.9 C105 129.7 93.7 129.7 87 126.9 M95 120 C92.1 117 91.7 114.4 93.4 111 C96.2 105.7 103.7 105.7 106.5 111 C109.1 116.1 105.6 122 100 122 C98.3 122 96.1 121.1 95 120 "/>
 </g>
</svg>