<?xml version="1.0" standalone="no"?>
<!DOCTYPE svg PUBLIC "-//W3C//DTD SVG 20010904//EN"
 "http://www.w3.org/TR/2001/REC-SVG-20010904/DTD/svg10.dtd">
<svg version="1.0" xmlns="http://www.w3.org/2000/svg"
 width="1280.000000pt" height="1280.000000pt" viewBox="0 0 1280.000000 1280.000000"
 preserveAspectRatio="xMidYMid meet">
<g transform="translate(0.000000,1280.000000) scale(0.100000,-0.100000)"
fill="#ffffff" stroke="none">
<path d="M5290 9070 c-20 -20 -20 -33 -20 -1413 0 -1070 -3 -1396 -12 -1405
-9 -9 -168 -12 -653 -12 -609 0 -643 -1 -658 -18 -21 -23 -22 -66 -3 -84 12
-13 775 -542 1915 -1329 250 -173 455 -318 455 -324 1 -7 -407 -12 -1196 -15
-1132 -5 -1198 -6 -1215 -23 -17 -16 -18 -44 -18 -332 0 -314 0 -314 23 -337
l23 -23 2578 -3 c1862 -3 2590 0 2620 8 22 6 45 20 51 30 7 13 10 126 8 330
-3 281 -5 311 -21 327 -17 17 -82 18 -1195 23 -776 3 -1177 8 -1176 15 0 6
212 156 470 334 1535 1059 1912 1323 1917 1343 5 18 -5 51 -20 68 -3 3 -298 7
-656 10 l-652 5 -6 1404 -5 1404 -23 18 c-22 18 -71 19 -1267 19 -1231 0
-1244 0 -1264 -20z"/>
</g>
</svg>
